<svg xmlns="http://www.w3.org/2000/svg" width="24" height="24" fill="none"  xmlns:v="https://vecta.io/nano"><g clip-path="url(#A)"><path d="M12 24c6.627 0 12-5.373 12-12S18.627 0 12 0 0 5.373 0 12s5.373 12 12 12z" fill="#fcfcfc"/><g fill="#a2001d"><path d="M4.956 11.13L3.652 8.764l1.304-2.33 1.304 2.33-1.304 2.366z"/><path d="M2.348 11.13L1.043 8.764l1.304-2.33 1.304 2.33-1.304 2.366zm2.608 6.435L3.652 15.2l1.304-2.33L6.26 15.2l-1.304 2.366z"/><path d="M2.348 17.565L1.043 15.2l1.304-2.33L3.65 15.2l-1.304 2.366zM6.26 2.33l-.37-.66a12.02 12.02 0 0 0-1.856 1.355l.92 1.67L6.26 2.33zM4.956 19.304l-.93 1.662a12.03 12.03 0 0 0 1.855 1.357l.38-.7-1.304-2.33z"/></g><path d="M7.304 15.13v7.915A11.96 11.96 0 0 0 12 24c5.16 0 9.558-3.256 11.254-7.826L7.304 15.13z" fill="#6da544"/><path d="M23.254 16.174c.482-1.3.746-2.706.746-4.174 0-6.627-5.373-12-12-12-1.666 0-3.253.34-4.696.954v15.22h15.95z" fill="#a2001d"/></g><defs><clipPath id="A"><path fill="#fff" d="M0 0h24v24H0z"/></clipPath></defs></svg>