<svg xmlns="http://www.w3.org/2000/svg" width="24" height="24" fill="none"  xmlns:v="https://vecta.io/nano"><path d="M12 24c6.627 0 12-5.373 12-12S18.627 0 12 0 0 5.373 0 12s5.373 12 12 12z" fill="#d80027"/><path d="M6.567 7.303L7.603 10.5h3.352l-2.7 1.973L9.28 15.65l-2.714-1.97-2.714 1.97 1.04-3.187L2.18 10.5h3.35l1.036-3.187zm7.66 11.283l-.792-.975-1.172.455.68-1.055-.792-.98 1.214.323.684-1.055.066 1.256 1.22.323-1.177.45.07 1.256zm1.575-2.86l.375-1.2-1.027-.727 1.256-.02.37-1.2.408 1.2 1.256-.014-1.008.75.403 1.2-1.026-.727-1.008.755zm2.123-6.92l-.553 1.13.9.877-1.242-.178-.553 1.125-.216-1.237-1.247-.178 1.116-.586-.216-1.242.9.877 1.1-.586zM14.26 5.386l-.094 1.252 1.167.473-1.223.3-.1 1.256-.66-1.07-1.223.3.8-.96-.666-1.064 1.167.473.8-.96z" fill="#ffda44"/></svg>