<svg xmlns="http://www.w3.org/2000/svg" width="24" height="24" fill="none"  xmlns:v="https://vecta.io/nano"><path d="M12 24c6.627 0 12-5.373 12-12S18.627 0 12 0 0 5.373 0 12s5.373 12 12 12z" fill="#0052b4"/><path d="M12 4.696l.4 1.196h1.257l-1.017.74.388 1.196L12 7.087l-1.017.74.4-1.196-1.017-.74h1.257L12 4.696zm-5.165 2.14l1.12.57.9-.9-.197 1.242 1.12.57-1.242.197-.197 1.242-.57-1.12-1.242.197.9-.9-.57-1.12zM4.696 12l1.196-.4v-1.257l.74 1.017 1.196-.4-.74 1.02.74 1.017-1.196-.4-.74 1.017V12.4L4.696 12zm2.14 5.165l.57-1.12-.9-.9 1.242.197.57-1.12.197 1.242 1.242.197-1.12.57.197 1.242-.9-.9-1.12.57zM12 19.304l-.4-1.196h-1.257l1.017-.74-.4-1.196 1.017.74 1.017-.74-.388 1.196 1.017.74h-1.257L12 19.304zm5.165-2.14l-1.12-.57-.9.9.197-1.242-1.12-.57 1.242-.197.197-1.242.57 1.12 1.242-.197-.9.9.57 1.12zM19.304 12l-1.196.4v1.257l-.74-1.017-1.196.4.74-1.017-.74-1.017 1.196.4.74-1.017v1.257l1.196.388zm-2.14-5.165l-.57 1.12.9.9-1.242-.197-.57 1.12-.197-1.242-1.242-.197 1.12-.57-.197-1.242.9.9 1.12-.57z" fill="#ffda44"/></svg>