<svg xmlns="http://www.w3.org/2000/svg" width="24" height="24" fill="none"  xmlns:v="https://vecta.io/nano"><g clip-path="url(#A)"><path d="M12 24c6.627 0 12-5.373 12-12S18.627 0 12 0 0 5.373 0 12s5.373 12 12 12z" fill="#f0f0f0"/><path d="M23.254 16.174c.482-1.3.746-2.706.746-4.174s-.264-2.874-.746-4.174H.746C.264 9.126 0 10.532 0 12s.264 2.874.746 4.174L12 17.217l11.254-1.044z" fill="#0052b4"/><path d="M12 24c5.16 0 9.558-3.256 11.254-7.826H.747C2.442 20.743 6.84 24 12 24z" fill="#d80027"/></g><defs><clipPath id="A"><path fill="#fff" d="M0 0h24v24H0z"/></clipPath></defs></svg>