<svg xmlns="http://www.w3.org/2000/svg" width="24" height="24" fill="none"  xmlns:v="https://vecta.io/nano"><g clip-path="url(#A)"><path d="M12 24c6.627 0 12-5.373 12-12S18.627 0 12 0 0 5.373 0 12s5.373 12 12 12z" fill="#f0f0f0"/><g fill="#d80027"><path d="M11.478 12H24a12.01 12.01 0 0 0-.413-3.13h-12.11V12zm0-6.26h10.76a12.03 12.03 0 0 0-2.77-3.13h-7.992v3.13zM12 24a11.95 11.95 0 0 0 7.47-2.609H4.53A11.95 11.95 0 0 0 12 24zM1.76 18.26h20.48a11.93 11.93 0 0 0 1.348-3.13H.413a11.93 11.93 0 0 0 1.348 3.13z"/></g><path d="M5.56 1.874h1.094l-1.017.74.39 1.196-1.017-.74-1.017.74.336-1.033c-.896.746-1.68 1.62-2.327 2.594h.35l-.647.47-.3.513.31.952-.577-.42-.392.932.34 1.05h1.257l-1.017.74.39 1.196-1.017-.74-.61.443c-.06.5-.093.99-.093 1.496h12V0C9.63 0 7.42.688 5.56 1.874zm.465 8.926l-1.017-.74-1.017.74.39-1.196-1.017-.74h1.257l.388-1.196.39 1.196h1.257l-1.017.74.39 1.196zm-.39-4.69l.39 1.196-1.017-.74-1.017.74.39-1.196-1.017-.74h1.257l.388-1.196.39 1.196h1.257l-1.017.74zm4.693 4.69l-1.017-.74-1.017.74.39-1.196-1.017-.74h1.257L9.31 7.67l.39 1.196h1.257l-1.017.74.39 1.196zm-.39-4.69l.39 1.196-1.017-.74-1.017.74.39-1.196-1.017-.74h1.257l.388-1.196.39 1.196h1.257l-1.017.74zm0-3.496l.39 1.196-1.017-.74-1.017.74.39-1.196-1.017-.74h1.257L9.31.678l.39 1.196h1.257l-1.017.74z" fill="#0052b4"/></g><defs><clipPath id="A"><path fill="#fff" d="M0 0h24v24H0z"/></clipPath></defs></svg>